# xmcd
#
# Track frame offsets:
# 187
# 13615
# 26377
# 43972
# 56642
# 70600
# 84247
# 98202
# 113007
# 126157
# 140587
# 154385
# 165990
# 180195
# 194595
# 207120
# 221770
# 236945
# 255117
# 267215
#
# Disc length: 3722 seconds
#
# Revision: 3
# Processed by: cddbd v1.5.2PL0 Copyright (c) Steve Scherf et al.
# Submitted via: Axialis_AX_CDPlayer 2.6
#
DISCID=100e8814
DTITLE=Gary Stewart - The Essential Gary Stewart
DYEAR=1997
DGENRE=Country
TTITLE0=Drinkin' Thing
TTITLE1=Honky-Tonkin'
TTITLE2=Roarin'
TTITLE3=She's Actin' Single (I'm Drinkin' Doubles)
TTITLE4=Back Sliders Wine
TTITLE5=Out Of Hand
TTITLE6=Single Again
TTITLE7=Quits
TTITLE8=Oh, Sweet Temptation
TTITLE9=In Some Room Above The Street
TTITLE10=Your Place Or Mine
TTITLE11=Ten Years Of This
TTITLE12=Whiskey Trip
TTITLE13=Stone Wall (Around Your Heart)
TTITLE14=Flat Natural Born Good-Timin' Man
TTITLE15=Mazelle
TTITLE16=Cactus And A Rose
TTITLE17=Are We Dreamin' The Same Dream
TTITLE18=I See The Want In Your Eyes
TTITLE19=Brotherly Love (Duet with Dean Dillon)
EXTD=www.garystewartmusic.com
EXTT0=
EXTT1=
EXTT2=
EXTT3=
EXTT4=
EXTT5=
EXTT6=
EXTT7=
EXTT8=
EXTT9=
EXTT10=
EXTT11=
EXTT12=
EXTT13=
EXTT14=
EXTT15=
EXTT16=
EXTT17=
EXTT18=
EXTT19=
PLAYORDER=
